<svg xmlns="http://www.w3.org/2000/svg" xmlns:xlink="http://www.w3.org/1999/xlink" viewBox="0 0 293.32 122.05"><defs><style>.cls-1{fill:none;}.cls-2{isolation:isolate;}.cls-3{fill:#3b98d4;}.cls-10,.cls-11,.cls-13,.cls-15,.cls-16,.cls-18,.cls-19,.cls-20,.cls-21,.cls-24,.cls-3,.cls-4,.cls-5,.cls-6,.cls-9{fill-rule:evenodd;}.cls-4{fill:#3ec0f0;}.cls-5{fill:#3dafe4;}.cls-6{fill:#b1cb14;}.cls-7{mix-blend-mode:multiply;opacity:0.6;}.cls-8{clip-path:url(#clip-path);}.cls-9{fill:#91c021;}.cls-10{fill:#8ebf23;}.cls-11{fill:#54af32;}.cls-12{clip-path:url(#clip-path-2);}.cls-13{fill:#39a934;}.cls-14{clip-path:url(#clip-path-3);}.cls-15{fill:#25a635;}.cls-16{fill:#7fba28;}.cls-17{clip-path:url(#clip-path-4);}.cls-18{fill:#39a140;}.cls-19{fill:#19a636;}.cls-20{fill:#68b42e;}.cls-21{fill:#c0d11b;}.cls-22{fill:#1a1a18;}.cls-23{fill:#42a4dc;}.cls-24{fill:#fffffd;}</style><clipPath id="clip-path"><rect id="SVGID" class="cls-1" x="72.37" y="54.16" width="13.71" height="42.13"/></clipPath><clipPath id="clip-path-2"><rect id="SVGID-2" data-name="SVGID" class="cls-1" x="132.93" y="55.83" width="9.63" height="14.96"/></clipPath><clipPath id="clip-path-3"><rect id="SVGID-3" data-name="SVGID" class="cls-1" x="177.65" y="57.78" width="13.42" height="39.87"/></clipPath><clipPath id="clip-path-4"><rect id="SVGID-4" data-name="SVGID" class="cls-1" x="221.1" y="53.8" width="9.53" height="46.87"/></clipPath></defs><g class="cls-2"><g id="Layer_2" data-name="Layer 2"><g id="Layer_1-2" data-name="Layer 1"><path class="cls-3" d="M0,102.5H20.23V84.9c0-11,4.19-14.88,12.45-14.88a30.14,30.14,0,0,1,4.19.58V50.37a23.8,23.8,0,0,0-2.63-.3c-7.88,0-12.84,3.8-15.66,11.78h-.2V51.53H0Z"/><path class="cls-4" d="M56.65,62.43h.24a9.16,9.16,0,0,1,9,8.85H56.65v10.3H86.07c.29-18.3-10.88-31.26-29.42-31.5Zm0,41.55V91.57a7.22,7.22,0,0,0,.82.05,8.09,8.09,0,0,0,7.59-4.48H84.41C81,99.62,68.38,103.87,56.65,104Zm-9.2-32.7c0-5.37,3.31-8.76,9.2-8.85V50.08h-.54c-16.35,0-28.89,10.7-28.89,27.44,0,17.11,12.64,26.47,29,26.47h.45V91.57a9.78,9.78,0,0,1-9.2-10h9.2V71.28Z"/><path class="cls-5" d="M28,70.57A17.23,17.23,0,0,1,32.68,70a31.72,31.72,0,0,1,4.19.58V56.38A25.22,25.22,0,0,0,28,70.57"/><path class="cls-6" d="M99.31,51.53c-.48-8.17,1.86-8.17,8.47-8.17V30.62H99.12c-12.93,0-19.94,2.91-19.94,20.91H72.37V63.21h6.71V102.5H99.31V63.21h8.47V51.53Z"/><g class="cls-7"><g class="cls-8"><path class="cls-9" d="M72.37,54.16v9.05h6.71V81.59h7c.19-12.31-4.78-22.19-13.7-27.43m6.71,33v9.15a20.15,20.15,0,0,0,5.34-9.15Z"/></g></g><path class="cls-10" d="M105.69,102.5h20.23V84.9c0-11,4.18-14.88,12.45-14.88a30.14,30.14,0,0,1,4.19.58V50.37a23.8,23.8,0,0,0-2.63-.3c-7.88,0-12.84,3.8-15.66,11.78h-.2V51.53H105.69Z"/><path class="cls-11" d="M161.63,62.43h.25a9.16,9.16,0,0,1,9,8.85h-9.2v10.3h29.43c.3-18.3-10.87-31.26-29.43-31.5Zm0,41.55V91.57a7.73,7.73,0,0,0,.84.05,8.09,8.09,0,0,0,7.58-4.48h19.36C186,99.62,173.38,103.87,161.63,104Zm-9.19-32.7c0-5.37,3.32-8.76,9.19-8.85V50.08h-.53c-16.34,0-28.89,10.7-28.89,27.44,0,17.11,12.64,26.47,29,26.47h.44V91.57a9.78,9.78,0,0,1-9.19-10h9.19V71.28Z"/><g class="cls-7"><g class="cls-12"><path class="cls-13" d="M132.93,70.79a17,17,0,0,1,5.45-.77,30.21,30.21,0,0,1,4.18.58V55.83a25.33,25.33,0,0,0-9.63,15"/></g></g><path class="cls-13" d="M177.61,86.65c1.07,13.72,13.91,17.33,25.58,17.33,18.68,0,27.44-7.22,27.44-17.82,0-19.07-32.2-14.3-32.2-21.4,0-2.53,2.23-3.6,5.74-3.6a6.35,6.35,0,0,1,4.08,1.27,5.32,5.32,0,0,1,1.95,3.7h18.39c-1.17-13.53-14.2-16.06-25.3-16.06-10.61,0-24.13,3.8-24.13,16.83,0,19.75,31.24,13.23,31.24,21.4,0,3.61-3.31,4.57-6.43,4.57a8.08,8.08,0,0,1-5-1.55,5.66,5.66,0,0,1-2.14-4.67Z"/><g class="cls-7"><g class="cls-14"><path class="cls-15" d="M177.65,87.14a16.23,16.23,0,0,0,4.9,10.51,20.14,20.14,0,0,0,6.86-10.51Zm4.51-29.36a14.29,14.29,0,0,0-3,9.12c0,8.29,5.52,12,11.91,14C191.07,71.33,187.9,63.26,182.16,57.78Z"/></g></g><path class="cls-16" d="M221.1,102.5h20.23v-26C241.33,70,243,66,249.21,66c5.74,0,7.1,4.47,7.1,9.53V102.5h20.24V72c0-14-6.32-21.88-19.75-21.88-6.81,0-11.38,2.72-15.47,7.88V32.47H221.1Z"/><g class="cls-7"><g class="cls-17"><path class="cls-18" d="M221.1,53.8V66.13h7.49A15,15,0,0,0,221.1,53.8m0,19.36v27.52c6.44-3.1,9.53-8.21,9.53-14.52C230.63,79.29,226.44,75.52,221.1,73.16Z"/></g></g><path class="cls-19" d="M151.34,3.1c-2.41,15,3.51,27.35,15.14,33.38C169.91,23.27,163,9.65,151.34,3.1"/><path class="cls-20" d="M187.51,0c-13.26,7.43-19.26,19.73-16.78,32.59C183.21,27.06,189.62,13.21,187.51,0"/><path class="cls-21" d="M206.21,31.21c-14.06-5.77-27.42-2.81-36,7.13,12.09,6.34,26.93,2.74,36-7.13"/></g></g></g></svg>